<svg id="Group_2358" data-name="Group 2358" xmlns="http://www.w3.org/2000/svg" width="15.996" height="15.996" viewBox="0 0 15.996 15.996">
  <path id="Path_27" data-name="Path 27" d="M17.33,3.962h-4A3.164,3.164,0,0,0,10,1,3.164,3.164,0,0,0,6.666,3.962h-4A.633.633,0,0,0,2,4.555a.633.633,0,0,0,.667.592h.667v7.989A4.128,4.128,0,0,0,7.676,17H12.32a4.128,4.128,0,0,0,4.343-3.86V5.147h.667A.633.633,0,0,0,18,4.555.633.633,0,0,0,17.33,3.962ZM10,2.185a1.9,1.9,0,0,1,2,1.777H8a1.9,1.9,0,0,1,2-1.777ZM15.33,13.136a2.861,2.861,0,0,1-3.01,2.676H7.676a2.861,2.861,0,0,1-3.01-2.676V5.147H15.33Z" transform="translate(-2 -1)" fill="#da1c1c"/>
  <path id="Path_28" data-name="Path 28" d="M10.589,17.3a.589.589,0,0,0,.589-.589v-4.12a.589.589,0,1,0-1.177,0v4.12A.589.589,0,0,0,10.589,17.3Z" transform="translate(-4.611 -5.461)" fill="#da1c1c"/>
  <path id="Path_29" data-name="Path 29" d="M16.589,17.3a.589.589,0,0,0,.589-.589v-4.12a.589.589,0,1,0-1.177,0v4.12A.589.589,0,0,0,16.589,17.3Z" transform="translate(-6.569 -5.461)" fill="#da1c1c"/>
</svg>
