<svg xmlns="http://www.w3.org/2000/svg" width="11.916" height="11.916" viewBox="0 0 11.916 11.916">
  <g id="Group_4968" data-name="Group 4968" transform="translate(-1322.828 -872.042)">
    <g id="Group_2397" data-name="Group 2397" transform="translate(1324.616 872.042)">
      <path id="Path_474" data-name="Path 474" d="M4.171,0a.491.491,0,0,0-.333.124L.114,3.589a.331.331,0,0,0,.035.526A.512.512,0,0,0,.78,4.085L4.171.93,7.561,4.085a.512.512,0,0,0,.631.029.331.331,0,0,0,.035-.526L4.5.124A.491.491,0,0,0,4.171,0Z" transform="translate(8.341 8.341) rotate(180)" fill="#2e81ec"/>
      <path id="Line_15" data-name="Line 15" d="M-.153-.6A.447.447,0,0,0-.6-.153v7.1a.447.447,0,0,0,.447.447.447.447,0,0,0,.447-.447v-7.1A.447.447,0,0,0-.153-.6Z" transform="translate(4.324 0.6)" fill="#2e81ec"/>
    </g>
    <path id="Path_475" data-name="Path 475" d="M-4097.541,5667.847h-11.085a.432.432,0,0,1-.415-.447v-4.053a.431.431,0,0,1,.415-.447.432.432,0,0,1,.416.447v3.606h10.253v-3.606a.432.432,0,0,1,.416-.447.432.432,0,0,1,.416.447v4.053A.432.432,0,0,1-4097.541,5667.847Z" transform="translate(5431.869 -4783.889)" fill="#2e81ec"/>
  </g>
</svg>
